<svg width="170" height="48" viewBox="0 0 170 48" fill="none" xmlns="http://www.w3.org/2000/svg">
<path d="M106.05 18.4803C106.583 12.4105 111.906 7.40348 118.078 7.40348C122.384 7.40348 123.305 7.40348 124.1 7.40348C123.443 11.8414 119.858 12.8531 117.614 12.7537C116.636 12.7116 109.564 12.8862 106.05 18.4743V18.4803ZM86.588 18.4743C90.0986 12.8802 97.174 12.7055 98.1495 12.7537C100.396 12.8531 103.963 11.8505 104.632 7.39746C103.843 7.39746 102.919 7.39746 98.6102 7.39746C92.441 7.39746 87.1179 12.4045 86.585 18.4743" fill="#009D92"/>
<path d="M64.7507 19.6457L64.2449 25.5108H58.8917L59.7648 15.4305H59.0121C53.4601 15.4305 48.5525 19.9468 48.0708 25.5108H42.7115L44.9154 8.13679e-05H50.2807L49.0764 13.8499C52.0121 11.4456 55.6813 10.1167 59.4758 10.0833H60.2164L61.0896 0.0271788H66.4398L64.7507 19.6457ZM40.4895 25.5168C40.5646 24.8355 40.4935 24.146 40.2808 23.4944C40.0682 22.8428 39.7189 22.244 39.2564 21.7382C38.7939 21.2323 38.2287 20.831 37.5987 20.561C36.9686 20.291 36.2883 20.1586 35.603 20.1726H34.3565C33.4197 20.189 32.49 20.0081 31.6277 19.6416C30.7655 19.2752 29.99 18.7314 29.3516 18.0456C28.7133 17.3599 28.2264 16.5474 27.9226 15.6612C27.6187 14.7749 27.5048 13.8346 27.5882 12.9014C27.8892 8.76157 31.6467 5.3744 35.7866 5.3744H37.1716C38.6314 5.34738 40.0304 4.78505 41.1028 3.79424C42.1752 2.80343 42.8463 1.45319 42.9885 8.13679e-05H36.1028C29.0063 0.0211571 22.7377 5.85312 22.2319 12.9767C21.7291 19.9739 27.0974 25.5288 34.0855 25.5228H40.4895V25.5168ZM80.1571 5.36838H83.2944C84.7548 5.34372 86.1552 4.78321 87.2294 3.79343C88.3036 2.80365 88.9765 1.45363 89.1203 8.13679e-05H80.4732C73.3737 8.13679e-05 67.1082 5.84107 66.5994 12.9617C66.0996 19.9588 71.4558 25.5138 78.453 25.5078H84.857C84.9307 24.8272 84.8585 24.1386 84.6453 23.4881C84.432 22.8376 84.0825 22.24 83.6201 21.7352C83.1577 21.2304 82.5931 20.8299 81.9637 20.5604C81.3344 20.291 80.6549 20.1588 79.9704 20.1726H78.7239C77.2745 20.2002 75.8558 19.7533 74.6839 18.8999C73.512 18.0465 72.6512 16.8335 72.2326 15.4456H78.1429C79.5996 15.4184 80.996 14.8584 82.0678 13.8714C83.1397 12.8845 83.8128 11.539 83.9598 10.0893H72.7234C73.4103 8.69614 74.4671 7.5186 75.7781 6.68546C77.0892 5.85233 78.604 5.39565 80.1571 5.36536V5.36838ZM139.558 0.0151355C132.476 0.0211571 126.193 5.85312 125.684 12.9767C125.184 19.9739 130.543 25.5258 137.54 25.5228H143.944C144.02 24.8408 143.95 24.1504 143.737 23.4978C143.525 22.8452 143.176 22.2456 142.713 21.739C142.25 21.2324 141.684 20.8306 141.053 20.5604C140.422 20.2903 139.741 20.1581 139.055 20.1726H137.811C136.362 20.1999 134.943 19.7529 133.77 18.8996C132.598 18.0463 131.737 16.8335 131.317 15.4456H137.227C138.685 15.4183 140.082 14.8574 141.154 13.8692C142.226 12.881 142.898 11.534 143.044 10.0833H131.808C133.163 7.3224 136.092 5.35934 139.241 5.35934H140.482C141.939 5.33201 143.335 4.77146 144.407 3.78382C145.478 2.79617 146.15 1.44998 146.296 8.13679e-05L139.558 0.0151355ZM153.251 5.35934L152.841 10.1014H162.042C162.69 10.0885 163.31 9.83916 163.786 9.4004C164.262 8.96164 164.56 8.36383 164.626 7.71983C164.658 7.4174 164.626 7.11152 164.531 6.8225C164.436 6.53348 164.281 6.26795 164.076 6.04354C163.871 5.81914 163.62 5.64099 163.34 5.52095C163.061 5.40091 162.759 5.34171 162.455 5.3473L153.251 5.35934ZM169.976 7.72284C169.819 9.24145 169.263 10.6915 168.364 11.9253C167.465 13.1591 166.255 14.1328 164.858 14.7471C166.143 16.2085 167.114 17.9188 167.71 19.7715C168.306 21.6243 168.515 23.58 168.323 25.5168H162.976C163.442 20.1365 159.586 15.7316 154.299 15.4637H152.369L151.498 25.5168H146.145L148.358 8.13679e-05H162.913C163.902 -0.0171486 164.883 0.176259 165.792 0.567463C166.701 0.958667 167.516 1.53872 168.184 2.26911C168.851 2.9995 169.356 3.86351 169.664 4.80379C169.972 5.74407 170.076 6.73911 169.97 7.72284H169.976ZM105.785 21.5395L105.439 25.5168H110.798L111.701 15.0933C110.31 15.6788 109.062 16.5579 108.042 17.6705C107.022 18.783 106.254 20.1028 105.791 21.5395H105.785ZM118.72 8.13679e-05C112.608 8.13679e-05 107.221 4.96493 106.691 11.0769L106.493 13.3681C108.134 10.3573 112.514 5.35332 118.256 5.35332H122.715C124.171 5.32559 125.567 4.76577 126.638 3.77954C127.71 2.79331 128.384 1.4489 128.532 8.13679e-05H118.72ZM86.3232 21.5395L85.977 25.5168H91.3272L92.2305 15.0933C90.8394 15.6785 89.5913 16.5575 88.5717 17.6702C87.552 18.7828 86.7851 20.1027 86.3232 21.5395V21.5395ZM99.2547 8.13679e-05C93.1428 8.13679e-05 87.7594 4.96493 87.2295 11.0769L87.0308 13.3681C88.6717 10.3573 93.0524 5.35332 98.7911 5.35332H102.648C104.104 5.32551 105.499 4.76559 106.57 3.7793C107.641 2.79302 108.314 1.44865 108.462 8.13679e-05H99.2547ZM12.242 25.5168C16.7823 25.5168 20.9523 21.8014 21.3196 17.2641C21.6207 13.4133 19.2813 10.1526 15.5991 9.31556L8.27675 7.65961C8.02706 7.60546 7.80599 7.46144 7.65555 7.25493C7.50512 7.04843 7.43581 6.79385 7.46081 6.53958C7.50017 6.21454 7.65615 5.91482 7.89979 5.69609C8.14344 5.47737 8.45818 5.3545 8.78558 5.35031H16.403C17.8593 5.32404 19.2556 4.76519 20.328 3.77938C21.4003 2.79358 22.0744 1.44912 22.2229 8.13679e-05H9.36064C5.7025 8.13679e-05 2.35747 3.0109 2.10757 6.66303C1.90284 9.67385 3.76353 12.2361 6.66897 12.8954L13.9883 14.5484C14.5931 14.6801 15.1291 15.0281 15.4955 15.5271C15.862 16.026 16.0337 16.6415 15.9784 17.2581C15.8967 18.0492 15.5276 18.7829 14.941 19.3201C14.3545 19.8572 13.5913 20.1606 12.796 20.1726H0.469688L0 25.5258H12.2571" fill="white"/>
<path d="M27.8436 44.9968H27.9129L32.9379 35.0219H33.4829V47.0381H31.8089L31.9022 39.1919H31.848L27.8225 47.1285H27.2956L23.219 39.1919H23.1618L23.2371 45.0359C23.2247 45.7088 23.2914 46.3808 23.4358 47.0381H22.2314V34.9256H22.7614L27.8436 44.9968ZM37.6077 47.2188C36.0601 47.2188 34.9492 46.3818 34.9492 44.9968C34.9492 43.6118 36.0601 42.9043 37.96 42.4858C39.637 42.1215 40.2693 41.5825 40.2693 40.5558C40.2693 39.5291 39.6671 38.9721 38.6705 38.9721C37.5776 38.9721 36.563 39.6646 35.7019 40.9021V39.1739C36.5818 38.5268 37.6507 38.1881 38.7428 38.2104C40.6727 38.2104 41.856 39.2823 41.856 41.0105V44.488C41.842 45.3504 41.9577 46.2101 42.1992 47.0381H40.4891L40.3445 45.7435C39.92 46.6377 38.8994 47.2188 37.6077 47.2188V47.2188ZM38.6073 43.0036C37.0808 43.4011 36.587 44.0755 36.587 44.8944C36.587 45.8428 37.2615 46.3998 38.1346 46.3998C39.3931 46.3998 40.2633 45.4002 40.2633 43.5606V42.1215C39.8143 42.58 39.2369 42.8917 38.6073 43.0157V43.0036ZM45.8333 35.7566C45.8192 36.0126 45.7076 36.2535 45.5214 36.4298C45.3352 36.606 45.0886 36.7043 44.8322 36.7043C44.5758 36.7043 44.3291 36.606 44.1429 36.4298C43.9567 36.2535 43.8451 36.0126 43.8311 35.7566C43.8451 35.5006 43.9567 35.2597 44.1429 35.0834C44.3291 34.9071 44.5758 34.8089 44.8322 34.8089C45.0886 34.8089 45.3352 34.9071 45.5214 35.0834C45.7076 35.2597 45.8192 35.5006 45.8333 35.7566V35.7566ZM45.6346 38.379V44.4759C45.6385 45.3284 45.6927 46.18 45.7971 47.0261H44.0328V40.9472C44.0306 40.0957 43.9763 39.245 43.8702 38.4001L45.6346 38.379ZM50.4519 43.4763C48.9465 43.1482 47.5735 42.2208 47.5735 40.6161C47.5735 39.1438 48.7568 38.2074 50.3977 38.2074C51.2708 38.198 52.1266 38.4507 52.8545 38.933V40.6642C52.1801 39.499 51.325 38.9691 50.4459 38.9691C49.645 38.9691 48.9164 39.4057 48.9164 40.2819C48.9164 41.2634 49.8437 41.6638 50.7921 41.9197C52.0446 42.2208 53.4476 42.8651 53.4476 44.5392C53.4476 46.1409 52.2433 47.2158 50.4639 47.2158C49.4526 47.2199 48.4675 46.8944 47.6578 46.2884V44.482C48.2058 45.6863 49.2445 46.43 50.4639 46.43C51.4304 46.43 52.1018 45.9573 52.1018 45.0299C52.0868 43.9581 51.1624 43.6329 50.4519 43.4884V43.4763ZM58.5209 38.379L61.3209 45.2045H61.3962L62.995 40.9472C63.3296 40.1154 63.6161 39.2649 63.853 38.4001H65.0333L61.4504 47.0381H60.4117L56.7987 38.3911L58.5209 38.379ZM68.0652 35.7566C68.062 36.0196 67.9547 36.2706 67.7667 36.4546C67.5788 36.6386 67.3256 36.7405 67.0626 36.7381C66.872 36.7322 66.6874 36.6704 66.5317 36.5604C66.3759 36.4504 66.256 36.2971 66.1867 36.1195C66.1174 35.9418 66.1019 35.7478 66.142 35.5614C66.1821 35.375 66.2762 35.2045 66.4124 35.0712C66.5487 34.9378 66.7211 34.8474 66.9083 34.8112C67.0955 34.7751 67.2892 34.7947 67.4653 34.8678C67.6414 34.9408 67.7921 35.064 67.8988 35.222C68.0055 35.3801 68.0633 35.5659 68.0652 35.7566V35.7566ZM67.8635 38.379V44.4759C67.8689 45.3284 67.9231 46.1798 68.026 47.0261H66.2647V40.9472C66.263 40.0956 66.2076 39.2448 66.0991 38.4001L67.8635 38.379ZM73.4636 47.2188C71.5336 47.2188 69.6398 45.7134 69.6398 42.7026C69.6398 40.044 71.2446 38.2074 73.4455 38.2074C74.0934 38.1905 74.7319 38.3641 75.2821 38.7066C75.8323 39.0491 76.2698 39.5455 76.5406 40.1343H76.5587V37.1235C76.5587 35.9944 76.5075 34.8835 76.3961 33.7544H78.1605V44.494C78.1511 45.347 78.2064 46.1995 78.3261 47.0442H76.5587V45.2949H76.5406C76.2706 45.8802 75.8357 46.374 75.2891 46.7158C74.7425 47.0575 74.1081 47.2324 73.4636 47.2188V47.2188ZM71.2988 42.7026C71.2988 44.7589 72.202 46.1981 73.846 46.1981C75.4899 46.1981 76.6129 44.7589 76.6129 42.6845C76.6129 40.61 75.4869 39.207 73.846 39.207C72.2051 39.207 71.2898 40.6462 71.2898 42.7056L71.2988 42.7026ZM82.207 47.2188C80.6594 47.2188 79.5484 46.3818 79.5484 44.9968C79.5484 43.6118 80.6594 42.9043 82.5593 42.4858C84.2303 42.1215 84.8686 41.5825 84.8686 40.5558C84.8686 39.5291 84.2664 38.9721 83.2668 38.9721C82.1769 38.9721 81.1592 39.6646 80.3012 40.9021V39.1739C81.1811 38.5268 82.25 38.1881 83.3421 38.2104C85.272 38.2104 86.4553 39.2823 86.4553 41.0105V44.488C86.4398 45.3505 86.5556 46.2104 86.7985 47.0381H85.0884L84.9438 45.7435H84.9258C84.5103 46.6377 83.4896 47.2188 82.195 47.2188H82.207ZM83.2066 43.0036C81.6801 43.4011 81.1863 44.0755 81.1863 44.8944C81.1863 45.8428 81.8608 46.3998 82.7339 46.3998C83.9924 46.3998 84.8625 45.4002 84.8625 43.5606V42.1215C84.4111 42.5816 83.8304 42.8934 83.1976 43.0157L83.2066 43.0036ZM93.2658 38.379V40.044H93.2838C93.5416 39.4831 93.9583 39.0101 94.4822 38.6837C95.0061 38.3572 95.6143 38.1916 96.2314 38.2074C97.9807 38.2074 99.2723 39.2792 99.2723 41.9197V44.485C99.2793 45.3375 99.3345 46.1889 99.4379 47.0351H97.6706V42.1034C97.6706 39.9206 96.8697 39.21 95.6684 39.21C94.2653 39.21 93.2597 40.1915 93.2597 42.0311V47.0381H91.658V41.7572C91.658 40.8118 91.5827 39.5382 91.4743 38.3911L93.2658 38.379ZM103.247 47.2067C101.699 47.2067 100.588 46.3697 100.588 44.9848C100.588 43.5998 101.699 42.8922 103.599 42.4737C105.273 42.1094 105.908 41.5705 105.908 40.5438C105.908 39.5171 105.306 38.9601 104.306 38.9601C103.217 38.9601 102.199 39.6526 101.341 40.89V39.1618C102.221 38.5147 103.29 38.1761 104.382 38.1984C106.312 38.1984 107.495 39.2702 107.495 40.9984V44.4759C107.481 45.3384 107.597 46.198 107.838 47.0261H106.131L105.986 45.7314H105.98C105.55 46.6377 104.529 47.2188 103.238 47.2188L103.247 47.2067ZM104.246 42.9916C102.72 43.389 102.226 44.0634 102.226 44.8824C102.226 45.8308 102.9 46.3878 103.774 46.3878C105.032 46.3878 105.902 45.3882 105.902 43.5486V42.1215C105.451 42.5816 104.87 42.8934 104.237 43.0157L104.246 42.9916ZM117.28 46.6678C116.811 47.0687 116.204 47.2707 115.588 47.2308C114.549 47.2308 113.164 46.9027 113.164 44.5753V39.1197H111.746V38.6259C113.366 38.7162 113.896 37.9003 114.04 35.88H114.769V38.3911H117.12V39.1197H114.772V45.0359C114.772 45.9994 115.266 46.454 116.009 46.454C116.262 46.4519 116.511 46.3876 116.733 46.2668C116.955 46.1461 117.144 45.9726 117.283 45.7616L117.28 46.6678ZM125.566 42.0974C125.569 42.3294 125.551 42.5611 125.512 42.7899H119.339C119.358 44.9908 120.472 46.4661 122.164 46.4661C122.781 46.4594 123.383 46.2735 123.897 45.9308C124.411 45.5882 124.814 45.1037 125.057 44.5361V46.4119C124.155 46.973 123.108 47.2577 122.046 47.2308C119.336 47.2308 117.587 45.3912 117.587 42.7146C117.587 40.038 119.333 38.2194 121.775 38.2194C124.112 38.2104 125.566 39.8453 125.566 42.0853V42.0974ZM121.781 38.9842C120.342 38.9842 119.358 40.333 119.358 42.0612H124.018C124.045 40.1193 123.142 38.9721 121.781 38.9721V38.9842ZM130.723 39.5141C129.63 39.5141 128.703 40.6973 128.703 42.6062V44.5C128.703 45.3527 128.757 46.2045 128.866 47.0502H127.101V40.9472C127.105 40.0954 127.049 39.2443 126.936 38.4001H128.703V40.5077H128.721C129.049 39.1227 129.904 38.2857 131.106 38.2857C131.446 38.2767 131.783 38.3522 132.087 38.5055V40.2879C131.615 39.6827 131.142 39.5021 130.723 39.5021V39.5141ZM136.826 39.5141C135.73 39.5141 134.803 40.6973 134.803 42.6062V44.5C134.803 45.3527 134.857 46.2045 134.966 47.0502H133.204V40.9472C133.206 40.0954 133.151 39.2445 133.039 38.4001H134.803V40.5077H134.821C135.152 39.1227 136.004 38.2857 137.209 38.2857C137.549 38.2773 137.886 38.3528 138.19 38.5055V40.2879C137.715 39.6827 137.245 39.5021 136.826 39.5021V39.5141ZM141.207 47.2188C139.66 47.2188 138.549 46.3818 138.549 44.9968C138.549 43.6118 139.66 42.9043 141.559 42.4858C143.23 42.1215 143.869 41.5825 143.869 40.5558C143.869 39.5291 143.266 38.9721 142.267 38.9721C141.177 38.9721 140.159 39.6646 139.301 40.9021V39.1739C140.181 38.5268 141.25 38.1881 142.342 38.2104C144.272 38.2104 145.455 39.2823 145.455 41.0105V44.488C145.44 45.3505 145.556 46.2104 145.799 47.0381H144.088L143.944 45.7435H143.926C143.528 46.6377 142.508 47.2188 141.207 47.2188ZM142.207 43.0036C140.68 43.4011 140.186 44.0755 140.186 44.8944C140.186 45.8428 140.861 46.3998 141.734 46.3998C142.992 46.3998 143.863 45.4002 143.863 43.5606V42.1215C143.416 42.5784 142.842 42.89 142.216 43.0157L142.207 43.0036Z" fill="white"/>
</svg>
